<?xml version="1.0" encoding="utf-8"?>
<!-- Generator: Adobe Illustrator 21.0.2, SVG Export Plug-In . SVG Version: 6.00 Build 0)  -->
<svg version="1.1" id="Capa_1" xmlns="http://www.w3.org/2000/svg" xmlns:xlink="http://www.w3.org/1999/xlink" x="0px" y="0px"
	 viewBox="0 0 150 74" style="enable-background:new 0 0 150 74;" xml:space="preserve">
<style type="text/css">
	.st0{fill:#ED2F2F;}
	.st1{fill:#1BA0AA;}
	.st2{fill:#414E62;}
</style>
<polygon class="st0" points="35.6,20.7 35.6,25.6 0.2,22.8 0.3,17.7 "/>
<polygon class="st1" points="35.6,31.5 35.6,36.4 0,33.6 0.3,28.5 "/>
<polygon class="st0" points="150.1,29.9 150.1,34.8 114.5,32.1 114.7,27 "/>
<polygon class="st1" points="150.1,40.7 150.1,45.6 114.5,42.9 114.7,37.8 "/>
<g>
	<path class="st2" d="M65.5,35.7c-0.1,0.1-0.2,0.2-0.3,0.3c-0.1,0.1-0.2,0.1-0.4,0.1c-0.2,0-0.3-0.1-0.4-0.2s-0.3-0.2-0.5-0.4
		c-0.2-0.1-0.4-0.3-0.7-0.4c-0.3-0.1-0.6-0.2-1-0.2c-0.5,0-1,0.1-1.4,0.3c-0.4,0.2-0.7,0.5-1,0.9c-0.3,0.4-0.5,0.9-0.6,1.5
		c-0.1,0.6-0.2,1.2-0.2,2c0,0.8,0.1,1.4,0.2,2c0.1,0.6,0.3,1.1,0.6,1.5c0.3,0.4,0.6,0.7,1,0.9c0.4,0.2,0.8,0.3,1.3,0.3
		s0.9-0.1,1.1-0.2c0.3-0.1,0.5-0.3,0.7-0.4c0.2-0.2,0.4-0.3,0.5-0.4c0.1-0.1,0.3-0.2,0.5-0.2c0.2,0,0.4,0.1,0.5,0.3l0.9,1.3
		c-0.3,0.4-0.7,0.8-1.1,1.1c-0.4,0.3-0.8,0.5-1.2,0.7c-0.4,0.2-0.8,0.3-1.3,0.4c-0.4,0.1-0.9,0.1-1.3,0.1c-0.8,0-1.5-0.2-2.1-0.5
		c-0.7-0.3-1.3-0.8-1.8-1.4c-0.5-0.6-0.9-1.4-1.2-2.3c-0.3-0.9-0.4-2-0.4-3.1c0-1.1,0.1-2,0.4-2.9c0.3-0.9,0.6-1.7,1.1-2.3
		c0.5-0.7,1.1-1.2,1.9-1.5c0.7-0.4,1.6-0.6,2.6-0.6c0.9,0,1.7,0.2,2.4,0.5c0.7,0.3,1.3,0.8,1.9,1.5L65.5,35.7z"/>
	<path class="st2" d="M73.7,47.2c-0.9,0-1.7-0.1-2.5-0.4c-0.7-0.3-1.4-0.7-1.9-1.2c-0.5-0.5-0.9-1.1-1.2-1.9
		c-0.3-0.7-0.4-1.5-0.4-2.4c0-1.2,0.3-2.2,0.8-3c0.5-0.8,1.3-1.4,2.3-1.8c-0.8-0.4-1.5-1-1.9-1.7C68.5,34,68.2,33,68.2,32
		c0-0.8,0.1-1.5,0.4-2.1c0.3-0.7,0.6-1.2,1.1-1.7c0.5-0.5,1.1-0.9,1.7-1.1c0.7-0.3,1.4-0.4,2.2-0.4c0.8,0,1.5,0.1,2.2,0.4
		c0.7,0.3,1.2,0.7,1.7,1.1c0.5,0.5,0.9,1.1,1.1,1.7c0.3,0.7,0.4,1.4,0.4,2.1c0,1.1-0.2,2-0.6,2.7c-0.4,0.8-1.1,1.3-1.9,1.7
		c1.1,0.4,1.8,1,2.3,1.8c0.5,0.8,0.8,1.8,0.8,3c0,0.9-0.1,1.7-0.4,2.4c-0.3,0.7-0.7,1.3-1.2,1.9c-0.5,0.5-1.2,0.9-1.9,1.2
		C75.4,47.1,74.6,47.2,73.7,47.2z M73.7,44.5c0.5,0,0.9-0.1,1.3-0.2c0.4-0.2,0.7-0.4,0.9-0.7c0.3-0.3,0.4-0.6,0.6-1
		c0.1-0.4,0.2-0.8,0.2-1.3c0-1.1-0.3-1.9-0.8-2.5c-0.5-0.6-1.3-0.9-2.2-0.9c-0.9,0-1.7,0.3-2.2,0.9c-0.5,0.6-0.8,1.4-0.8,2.5
		c0,0.5,0.1,0.9,0.2,1.3c0.1,0.4,0.3,0.7,0.6,1c0.3,0.3,0.6,0.5,0.9,0.7C72.8,44.4,73.2,44.5,73.7,44.5z M73.7,35.2
		c0.5,0,0.9-0.1,1.2-0.3c0.3-0.2,0.6-0.4,0.8-0.7c0.2-0.3,0.3-0.6,0.4-1c0.1-0.4,0.1-0.8,0.1-1.2c0-0.4-0.1-0.7-0.2-1.1
		c-0.1-0.3-0.3-0.6-0.5-0.9c-0.2-0.3-0.5-0.5-0.8-0.6c-0.3-0.2-0.7-0.2-1.1-0.2c-0.4,0-0.8,0.1-1.1,0.2c-0.3,0.2-0.6,0.4-0.8,0.6
		c-0.2,0.3-0.4,0.6-0.5,0.9c-0.1,0.3-0.1,0.7-0.1,1.1c0,0.4,0,0.8,0.1,1.2c0.1,0.4,0.2,0.7,0.4,1c0.2,0.3,0.5,0.5,0.8,0.7
		C72.8,35.1,73.2,35.2,73.7,35.2z"/>
	<path class="st2" d="M93.9,36.9c0,1.8-0.2,3.3-0.5,4.6c-0.3,1.3-0.8,2.4-1.3,3.2c-0.6,0.8-1.2,1.5-2,1.9c-0.8,0.4-1.6,0.6-2.5,0.6
		S85.8,47,85,46.6c-0.8-0.4-1.4-1-2-1.9c-0.6-0.8-1-1.9-1.3-3.2c-0.3-1.3-0.5-2.8-0.5-4.6c0-1.8,0.2-3.3,0.5-4.6
		c0.3-1.3,0.8-2.4,1.3-3.2c0.6-0.8,1.2-1.5,2-1.9c0.8-0.4,1.6-0.6,2.5-0.6s1.7,0.2,2.5,0.6c0.8,0.4,1.5,1,2,1.9
		c0.6,0.8,1,1.9,1.3,3.2C93.8,33.6,93.9,35.1,93.9,36.9z M90.9,36.9c0-1.5-0.1-2.7-0.3-3.6c-0.2-1-0.4-1.7-0.7-2.3
		c-0.3-0.6-0.7-1-1.1-1.2c-0.4-0.2-0.8-0.3-1.2-0.3c-0.4,0-0.8,0.1-1.2,0.3c-0.4,0.2-0.7,0.6-1,1.2c-0.3,0.6-0.5,1.3-0.7,2.3
		c-0.2,1-0.3,2.2-0.3,3.6c0,1.5,0.1,2.7,0.3,3.6c0.2,1,0.4,1.7,0.7,2.3c0.3,0.6,0.7,1,1,1.2c0.4,0.2,0.8,0.3,1.2,0.3
		c0.4,0,0.8-0.1,1.2-0.3c0.4-0.2,0.8-0.6,1.1-1.2c0.3-0.6,0.6-1.3,0.7-2.3C90.8,39.6,90.9,38.4,90.9,36.9z"/>
</g>
<path class="st2" d="M109.4,6.3v-6L75,16.1L40.6,0.3v6.1l-5.3-2.6v49.9l39.8,20.8l39.7-20.8L115,3.8L109.4,6.3z M42.4,3.3L75,18.1
	l32.6-14.9v47L75.1,66.4L42.4,50.1V3.3z M113,52.6L75.1,72.4l-38-19.8V6.8l3.5,1.8v42.7l34.5,17.2l34.3-17.2l0-42.9l3.7-1.6
	L113,52.6z"/>
</svg>
