<?xml version="1.0" encoding="utf-8"?>
<!-- Generator: Adobe Illustrator 21.0.2, SVG Export Plug-In . SVG Version: 6.00 Build 0)  -->
<svg version="1.1" id="Capa_1" xmlns="http://www.w3.org/2000/svg" xmlns:xlink="http://www.w3.org/1999/xlink" x="0px" y="0px"
	 viewBox="0 0 150 74" style="enable-background:new 0 0 150 74;" xml:space="preserve">
<style type="text/css">
	.st0{fill:#ED2F2F;}
	.st1{fill:#1BA0AA;}
	.st2{fill:#414E62;}
</style>
<polygon class="st0" points="35.7,20.3 35.7,25.2 0.4,22.5 0.4,17.4 "/>
<polygon class="st1" points="35.7,31.1 35.7,36 0.4,33.3 0.4,28.1 "/>
<polygon class="st0" points="149.9,29.5 149.9,34.4 114.4,31.7 114.7,26.6 "/>
<polygon class="st1" points="149.9,40.3 149.9,45.2 114.4,42.4 114.7,37.4 "/>
<g>
	<path class="st2" d="M63.1,35c-0.1,0.2-0.2,0.3-0.3,0.4c-0.1,0.1-0.3,0.1-0.5,0.1c-0.2,0-0.4-0.1-0.6-0.2s-0.4-0.3-0.6-0.5
		c-0.3-0.2-0.5-0.3-0.9-0.5c-0.3-0.1-0.8-0.2-1.3-0.2c-0.7,0-1.2,0.1-1.7,0.4c-0.5,0.3-0.9,0.7-1.2,1.2s-0.6,1.1-0.7,1.9
		c-0.2,0.7-0.2,1.6-0.2,2.5c0,1,0.1,1.8,0.3,2.6c0.2,0.7,0.4,1.4,0.8,1.9c0.3,0.5,0.7,0.9,1.2,1.2c0.5,0.3,1,0.4,1.6,0.4
		c0.6,0,1.1-0.1,1.4-0.3c0.4-0.2,0.7-0.4,0.9-0.6c0.3-0.2,0.5-0.4,0.7-0.6c0.2-0.2,0.4-0.3,0.6-0.3c0.3,0,0.5,0.1,0.7,0.4l1.1,1.6
		c-0.4,0.6-0.9,1-1.3,1.4c-0.5,0.4-1,0.7-1.5,0.9c-0.5,0.2-1,0.4-1.6,0.5c-0.6,0.1-1.1,0.1-1.6,0.1c-1,0-1.8-0.2-2.7-0.6
		c-0.8-0.4-1.6-1-2.2-1.8c-0.6-0.8-1.1-1.8-1.5-2.9c-0.4-1.1-0.5-2.5-0.5-3.9c0-1.3,0.2-2.5,0.5-3.7c0.3-1.1,0.8-2.1,1.4-2.9
		c0.6-0.8,1.4-1.5,2.3-1.9c0.9-0.5,2-0.7,3.2-0.7c1.2,0,2.2,0.2,3,0.6c0.9,0.4,1.6,1,2.3,1.9L63.1,35z"/>
	<path class="st2" d="M73.3,49.4c-1.1,0-2.1-0.2-3.1-0.5c-0.9-0.4-1.7-0.8-2.4-1.5c-0.7-0.6-1.2-1.4-1.5-2.3c-0.4-0.9-0.5-1.9-0.5-3
		c0-1.5,0.3-2.8,0.9-3.8c0.6-1,1.6-1.8,2.9-2.3c-1.1-0.5-1.9-1.2-2.4-2.2c-0.5-0.9-0.8-2.1-0.8-3.4c0-1,0.2-1.8,0.5-2.7
		c0.3-0.8,0.8-1.5,1.4-2.2c0.6-0.6,1.3-1.1,2.2-1.4c0.8-0.3,1.8-0.5,2.8-0.5c1,0,1.9,0.2,2.8,0.5c0.8,0.3,1.6,0.8,2.2,1.4
		c0.6,0.6,1.1,1.3,1.4,2.2c0.3,0.8,0.5,1.7,0.5,2.7c0,1.3-0.3,2.5-0.8,3.4c-0.5,0.9-1.3,1.7-2.4,2.2c1.3,0.5,2.3,1.3,2.9,2.3
		c0.6,1,0.9,2.3,0.9,3.8c0,1.1-0.2,2.1-0.5,3c-0.4,0.9-0.9,1.7-1.5,2.3c-0.7,0.6-1.5,1.1-2.4,1.5C75.5,49.2,74.5,49.4,73.3,49.4z
		 M73.3,46c0.6,0,1.1-0.1,1.6-0.3c0.5-0.2,0.8-0.5,1.2-0.8c0.3-0.4,0.6-0.8,0.7-1.3c0.2-0.5,0.2-1,0.2-1.6c0-1.4-0.3-2.4-1-3.1
		s-1.6-1.1-2.7-1.1c-1.2,0-2.1,0.4-2.7,1.1c-0.7,0.7-1,1.8-1,3.1c0,0.6,0.1,1.1,0.2,1.6c0.2,0.5,0.4,0.9,0.7,1.3
		c0.3,0.4,0.7,0.6,1.2,0.8C72.2,45.9,72.7,46,73.3,46z M73.3,34.4c0.6,0,1.1-0.1,1.5-0.3c0.4-0.2,0.7-0.5,1-0.9
		c0.3-0.4,0.4-0.8,0.5-1.3c0.1-0.5,0.2-1,0.2-1.5c0-0.5-0.1-0.9-0.2-1.4c-0.1-0.4-0.3-0.8-0.6-1.1c-0.3-0.3-0.6-0.6-1-0.8
		c-0.4-0.2-0.9-0.3-1.4-0.3c-0.6,0-1,0.1-1.4,0.3c-0.4,0.2-0.7,0.5-1,0.8c-0.3,0.3-0.5,0.7-0.6,1.1c-0.1,0.4-0.2,0.9-0.2,1.4
		c0,0.5,0.1,1,0.2,1.5c0.1,0.5,0.3,0.9,0.5,1.3c0.3,0.4,0.6,0.7,1,0.9C72.2,34.2,72.7,34.4,73.3,34.4z"/>
	<path class="st2" d="M98.7,36.5c0,2.2-0.2,4.1-0.6,5.7c-0.4,1.6-1,3-1.7,4s-1.6,1.9-2.5,2.4c-1,0.5-2,0.8-3.2,0.8s-2.2-0.3-3.1-0.8
		c-1-0.5-1.8-1.3-2.5-2.4c-0.7-1.1-1.3-2.4-1.7-4c-0.4-1.6-0.6-3.5-0.6-5.7c0-2.2,0.2-4.1,0.6-5.8c0.4-1.6,1-3,1.7-4
		c0.7-1.1,1.5-1.9,2.5-2.4c1-0.5,2-0.8,3.1-0.8s2.2,0.3,3.2,0.8c1,0.5,1.8,1.3,2.5,2.4c0.7,1.1,1.3,2.4,1.7,4
		C98.5,32.4,98.7,34.3,98.7,36.5z M94.9,36.5c0-1.8-0.1-3.3-0.3-4.6c-0.2-1.2-0.5-2.2-0.9-2.9c-0.4-0.7-0.8-1.2-1.3-1.5
		c-0.5-0.3-1-0.4-1.6-0.4c-0.5,0-1,0.1-1.5,0.4c-0.5,0.3-0.9,0.8-1.3,1.5c-0.4,0.7-0.7,1.7-0.9,2.9c-0.2,1.2-0.3,2.7-0.3,4.6
		c0,1.8,0.1,3.3,0.3,4.6c0.2,1.2,0.5,2.2,0.9,2.9c0.4,0.7,0.8,1.2,1.3,1.5c0.5,0.3,1,0.4,1.5,0.4c0.5,0,1.1-0.1,1.6-0.4
		c0.5-0.3,0.9-0.8,1.3-1.5c0.4-0.7,0.7-1.7,0.9-2.9C94.8,39.8,94.9,38.3,94.9,36.5z"/>
</g>
<path class="st2" d="M109.4,6V0L75,15.7L40.7,0v6.1l-5.3-2.6v49.8L75.1,74l39.6-20.8l0.1-49.7L109.4,6z M42.5,2.9L75,17.7l32.5-14.9
	v46.9L75.1,65.9L42.5,49.7V2.9z M112.9,52.2L75.1,71.9L37.2,52.2V6.4l3.5,1.8v42.6L75.1,68l34.3-17.1l0-42.8l3.7-1.6L112.9,52.2z"/>
</svg>
