<?xml version="1.0" encoding="utf-8"?>
<!-- Generator: Adobe Illustrator 21.0.2, SVG Export Plug-In . SVG Version: 6.00 Build 0)  -->
<svg version="1.1" id="Capa_1" xmlns="http://www.w3.org/2000/svg" xmlns:xlink="http://www.w3.org/1999/xlink" x="0px" y="0px"
	 viewBox="0 0 150 74" style="enable-background:new 0 0 150 74;" xml:space="preserve">
<style type="text/css">
	.st0{fill:#ED2F2F;}
	.st1{fill:#1BA0AA;}
	.st2{fill:#414E62;}
</style>
<polygon class="st0" points="36,20.3 36,25.2 0,22 0,17 "/>
<polygon class="st1" points="36,31 36,35.9 0,33 0,28 "/>
<polygon class="st0" points="150,29.5 150,34.4 114.5,31.6 114.8,26.5 "/>
<polygon class="st1" points="150,40.2 150,45.1 114.5,42.4 114.8,37.3 "/>
<g>
	<path class="st2" d="M63.4,34.9c-0.1,0.2-0.2,0.3-0.3,0.4c-0.1,0.1-0.3,0.1-0.5,0.1c-0.2,0-0.4-0.1-0.6-0.2
		c-0.2-0.1-0.4-0.3-0.6-0.5c-0.2-0.2-0.5-0.3-0.9-0.5c-0.3-0.1-0.8-0.2-1.3-0.2c-0.6,0-1.2,0.1-1.7,0.4c-0.5,0.3-0.9,0.7-1.2,1.2
		c-0.3,0.5-0.6,1.1-0.7,1.9c-0.2,0.7-0.2,1.6-0.2,2.5c0,1,0.1,1.8,0.3,2.5c0.2,0.7,0.4,1.4,0.8,1.9c0.3,0.5,0.7,0.9,1.2,1.2
		c0.5,0.3,1,0.4,1.6,0.4s1.1-0.1,1.4-0.3c0.4-0.2,0.7-0.4,0.9-0.6c0.2-0.2,0.5-0.4,0.7-0.6c0.2-0.2,0.4-0.3,0.6-0.3
		c0.3,0,0.5,0.1,0.7,0.4l1.1,1.6c-0.4,0.6-0.9,1-1.3,1.4c-0.5,0.4-1,0.7-1.5,0.9c-0.5,0.2-1,0.4-1.6,0.5c-0.5,0.1-1.1,0.1-1.6,0.1
		c-0.9,0-1.8-0.2-2.7-0.6c-0.8-0.4-1.6-1-2.2-1.8c-0.6-0.8-1.1-1.8-1.5-2.9c-0.4-1.1-0.5-2.5-0.5-3.9c0-1.3,0.2-2.5,0.5-3.7
		c0.3-1.1,0.8-2.1,1.4-2.9c0.6-0.8,1.4-1.5,2.3-1.9c0.9-0.5,2-0.7,3.2-0.7c1.1,0,2.2,0.2,3,0.6c0.9,0.4,1.6,1,2.3,1.9L63.4,34.9z"/>
	<path class="st2" d="M73.6,49.3c-1.1,0-2.1-0.2-3.1-0.5c-0.9-0.3-1.7-0.8-2.4-1.5c-0.7-0.6-1.2-1.4-1.5-2.3c-0.4-0.9-0.5-1.9-0.5-3
		c0-1.5,0.3-2.7,0.9-3.8c0.6-1,1.6-1.8,2.9-2.3c-1.1-0.5-1.8-1.2-2.4-2.2c-0.5-0.9-0.8-2.1-0.8-3.4c0-1,0.2-1.8,0.5-2.7
		c0.3-0.8,0.8-1.5,1.4-2.2c0.6-0.6,1.3-1.1,2.1-1.4c0.8-0.3,1.8-0.5,2.7-0.5c1,0,1.9,0.2,2.7,0.5c0.8,0.3,1.6,0.8,2.1,1.4
		c0.6,0.6,1.1,1.3,1.4,2.2c0.3,0.8,0.5,1.7,0.5,2.7c0,1.3-0.3,2.5-0.8,3.4c-0.5,0.9-1.3,1.7-2.4,2.2c1.3,0.5,2.3,1.3,2.9,2.3
		c0.6,1,0.9,2.3,0.9,3.8c0,1.1-0.2,2.1-0.5,3c-0.4,0.9-0.9,1.7-1.5,2.3c-0.7,0.6-1.5,1.1-2.4,1.5C75.7,49.1,74.7,49.3,73.6,49.3z
		 M73.6,45.9c0.6,0,1.1-0.1,1.6-0.3c0.5-0.2,0.8-0.5,1.2-0.8s0.6-0.8,0.7-1.3c0.2-0.5,0.2-1,0.2-1.6c0-1.4-0.3-2.4-1-3.1
		c-0.7-0.7-1.6-1.1-2.7-1.1c-1.2,0-2.1,0.4-2.7,1.1c-0.7,0.7-1,1.8-1,3.1c0,0.6,0.1,1.1,0.2,1.6c0.2,0.5,0.4,0.9,0.7,1.3
		s0.7,0.6,1.2,0.8C72.4,45.8,72.9,45.9,73.6,45.9z M73.6,34.3c0.6,0,1.1-0.1,1.5-0.3c0.4-0.2,0.7-0.5,1-0.9c0.2-0.4,0.4-0.8,0.5-1.3
		c0.1-0.5,0.2-1,0.2-1.5c0-0.5-0.1-0.9-0.2-1.4c-0.1-0.4-0.3-0.8-0.6-1.1c-0.3-0.3-0.6-0.6-1-0.8c-0.4-0.2-0.9-0.3-1.4-0.3
		c-0.5,0-1,0.1-1.4,0.3c-0.4,0.2-0.7,0.5-1,0.8c-0.3,0.3-0.5,0.7-0.6,1.1c-0.1,0.4-0.2,0.9-0.2,1.4c0,0.5,0.1,1,0.2,1.5
		c0.1,0.5,0.3,0.9,0.5,1.3c0.2,0.4,0.6,0.7,1,0.9C72.5,34.2,73,34.3,73.6,34.3z"/>
	<path class="st2" d="M98.9,36.4c0,2.2-0.2,4.1-0.6,5.7c-0.4,1.6-1,3-1.7,4S95,48,94.1,48.5c-1,0.5-2,0.8-3.2,0.8
		c-1.1,0-2.2-0.3-3.1-0.8c-1-0.5-1.8-1.3-2.5-2.4c-0.7-1.1-1.3-2.4-1.7-4c-0.4-1.6-0.6-3.5-0.6-5.7c0-2.2,0.2-4.1,0.6-5.7
		c0.4-1.6,1-3,1.7-4c0.7-1.1,1.5-1.8,2.5-2.4c1-0.5,2-0.8,3.1-0.8c1.1,0,2.2,0.3,3.2,0.8c1,0.5,1.8,1.3,2.5,2.4s1.3,2.4,1.7,4
		C98.7,32.3,98.9,34.2,98.9,36.4z M95.1,36.4c0-1.8-0.1-3.3-0.3-4.5c-0.2-1.2-0.5-2.2-0.9-2.9c-0.4-0.7-0.8-1.2-1.3-1.5
		c-0.5-0.3-1-0.4-1.6-0.4c-0.5,0-1,0.1-1.5,0.4c-0.5,0.3-0.9,0.8-1.3,1.5c-0.4,0.7-0.7,1.7-0.9,2.9c-0.2,1.2-0.3,2.7-0.3,4.5
		c0,1.8,0.1,3.3,0.3,4.5c0.2,1.2,0.5,2.2,0.9,2.9c0.4,0.7,0.8,1.2,1.3,1.5c0.5,0.3,1,0.4,1.5,0.4c0.5,0,1.1-0.1,1.6-0.4
		c0.5-0.3,0.9-0.8,1.3-1.5c0.4-0.7,0.7-1.7,0.9-2.9C94.9,39.8,95.1,38.2,95.1,36.4z"/>
</g>
<path class="st2" d="M109.5,6V0L75.2,15.7L41,0v6.1l-5.3-2.6v49.7l39.7,20.7l39.5-20.7L115,3.5L109.5,6z M42.8,2.9l32.5,14.8
	l32.5-14.9v46.8L75.3,65.8L42.8,49.6V2.9z M113.1,52.1L75.3,71.8L37.5,52.1V6.4L41,8.2v42.5l34.4,17.1l34.2-17.1l0-42.7l3.7-1.6
	L113.1,52.1z"/>
</svg>
